<svg xmlns="http://www.w3.org/2000/svg" xmlns:svg="http://www.w3.org/2000/svg" id="svg909" width="24" height="24" version="1.1"><metadata id="metadata915"/><linearGradient id="a" x1="89.137" x2="147.777" y1="111.921" y2="168.101" gradientUnits="userSpaceOnUse"><stop id="stop875" offset="0" stop-color="#ffe052"/><stop id="stop877" offset="1" stop-color="#ffc331"/></linearGradient><linearGradient id="b" x1="55.549" x2="110.149" y1="77.07" y2="131.853" gradientUnits="userSpaceOnUse"><stop id="stop880" offset="0" stop-color="#387eb8"/><stop id="stop882" offset="1" stop-color="#366994"/></linearGradient><rect style="fill:#497db4;fill-opacity:1;stroke:#497db4;stroke-width:7.9114;stroke-linecap:round;stroke-linejoin:round;stroke-miterlimit:4;stroke-dasharray:none;stroke-dashoffset:.680315;stroke-opacity:1;paint-order:stroke fill markers" id="rect1418" width="16.051" height="7.013" x="4.003" y="4.004"/><g id="g2140"><rect id="rect895" width="11" height="11" x="13" y="13" fill="#3c5a6e" rx="2.011"/><path id="path897" fill="#fcffff" fill-rule="evenodd" d="M 14.000001,19 23,18.99 c 0,0 0,0 0,-2 0,-2.9904 -1,-2.9904 -4.5,-2.9904 -3.5,0 -4.5,0 -4.5,3 0,2 0,2 10e-7,2 z" opacity=".3"/><g id="g905" fill="none" stroke="#fff" stroke-linecap="round" stroke-linejoin="round" transform="translate(0,-1028.3622)"><path id="path899" d="m 21.004293,1044.8679 1.495712,1.9943 -1.495712,1.9943"/><path id="path901" stroke-width="1.5" d="m 17.75,1045.3622 v -1.25 h -2.5 v 5.5 h 2.5 v -1"/><path id="path903" d="m 17,1046.8622 h 4.393183"/></g></g><text style="font-style:normal;font-weight:400;font-size:8px;line-height:1.25;font-family:sans-serif;letter-spacing:0;word-spacing:0;fill:#fff;fill-opacity:1;stroke:none" id="text4518" x="1.769" y="10.268" xml:space="preserve"><tspan style="font-style:normal;font-variant:normal;font-weight:700;font-stretch:normal;font-size:9.33333px;font-family:Arial;-inkscape-font-specification:'Arial Bold';fill:#fff;fill-opacity:1" id="tspan4520" x="1.769" y="10.268">KMZ</tspan></text></svg>