<svg xmlns="http://www.w3.org/2000/svg" xmlns:svg="http://www.w3.org/2000/svg" id="svg34" width="24" height="24" version="1.1"><metadata id="metadata40"/><g id="g32" transform="translate(0 -8)"><path id="path2" fill="#6e97c4" d="m6.499999 8h6.499999v6.499999h-6.499999z"/><path id="path4" fill="#253e5b" d="m13.000001 8h6.499999v6.499999h-6.499999z"/><path id="path6" fill="#253e5b" d="m6.499999 14.5h6.499999v6.499999h-6.499999z"/><path id="path8" fill="#6d97c4" d="m13.000001 14.5h6.499999v6.499999h-6.499999z"/><path id="path10" fill="#253e5b" d="m0 8h6.499999v6.499999h-6.499999z"/><path id="path12" fill="#6d97c4" d="m0 14.5h6.499999v6.499999h-6.499999z"/><path id="path14" fill="#6d97c4" d="m6.499999 21.000002h6.499999v6.499999h-6.499999z"/><path id="path16" fill="#253e5b" d="m0 21.000002h6.499999v6.499999h-6.499999z"/><path id="path18" fill="none" d="m0 8h19.499998v19.499998h-19.499998z"/><g id="g30" transform="matrix(.69230769 0 0 .69230769 1.846154 9.846154)"><rect id="rect20" width="13" height="13" x="19" y="19" fill="#5a8c5a" rx="2.615"/><g id="g28" fill-rule="evenodd"><path id="path22" fill="#fff" stroke="#fff" stroke-linecap="round" stroke-linejoin="round" stroke-width="2.6" d="m21.6 25.499999h7.8"/><path id="path24" fill="#fff" stroke="#fff" stroke-linecap="round" stroke-linejoin="round" stroke-width="2.6" d="m25.5 29.399999v-7.799999"/><path id="path26" fill="#fcffff" d="m20.3 25.499999h10.4s0 0 0-2.6c0-2.599999-.65-2.599999-5.2-2.599999s-5.2 0-5.2 2.599999z" opacity=".3"/></g></g></g><text id="text4518" x=".249" y="9.656" xml:space="preserve" style="font-style:normal;font-weight:400;font-size:8.66667px;line-height:1.25;font-family:sans-serif;letter-spacing:0;word-spacing:0;fill:#fff;fill-opacity:1;stroke:none;stroke-width:1.5;stroke-linecap:butt;stroke-linejoin:round;stroke-miterlimit:4;stroke-dasharray:none;stroke-opacity:1;paint-order:stroke fill markers"><tspan id="tspan4520" x=".249" y="9.656" style="font-style:normal;font-variant:normal;font-weight:700;font-stretch:normal;font-size:8.66667px;font-family:Arial;-inkscape-font-specification:'Arial Bold';fill:#fff;fill-opacity:1;stroke:none;stroke-width:1.5;stroke-linecap:butt;stroke-linejoin:round;stroke-miterlimit:4;stroke-dasharray:none;stroke-opacity:1;paint-order:stroke fill markers">KML</tspan></text></svg>