<svg xmlns="http://www.w3.org/2000/svg" xmlns:svg="http://www.w3.org/2000/svg" id="svg4566" width="24" height="24" version="1.1" viewBox="0 0 24 24"><metadata id="metadata4572"/><linearGradient id="linearGradient4548" x1="-10" x2="-10" y1="15" y2="21" gradientUnits="userSpaceOnUse"><stop id="stop4544" offset="0" stop-color="#555753"/><stop id="stop4546" offset="1" stop-color="#555753" stop-opacity="0"/></linearGradient><g id="g4564" transform="translate(0,-8)"><rect style="fill:#497db4;fill-opacity:1;stroke:#497db4;stroke-width:7.9114;stroke-linecap:round;stroke-linejoin:round;stroke-miterlimit:4;stroke-dasharray:none;stroke-dashoffset:.680315;stroke-opacity:1;paint-order:stroke fill markers" id="rect1418" width="16.051" height="7.013" x="4.018" y="11.981"/><text id="text4576" x=".077" y="17.885" xml:space="preserve" style="font-style:normal;font-weight:400;font-size:8.53336px;line-height:125%;font-family:sans-serif;letter-spacing:0;word-spacing:0;fill:#f8fbf8;fill-opacity:1;stroke:#4c4d4c;stroke-width:.377953;stroke-linecap:butt;stroke-linejoin:miter;stroke-miterlimit:4;stroke-dasharray:none;stroke-opacity:.933333"><tspan style="font-style:normal;font-variant:normal;font-weight:700;font-stretch:normal;font-size:8.53336px;line-height:100%;font-family:Arial;-inkscape-font-specification:'Arial Bold';fill:#f8fbf8;fill-opacity:1;stroke:none;stroke-width:.377953;stroke-miterlimit:4;stroke-dasharray:none;stroke-opacity:.933333" id="tspan4574" x=".077" y="17.885">HTML</tspan></text><g id="g4556" transform="translate(33,8)"><rect style="fill:#c4a000" id="rect4550" width="11" height="11" x="-20" y="13" rx="2.011"/><path style="fill:#fcffff" id="path4552" d="m -15,14 v 2.0625 c -0.537663,0.111041 -1.024662,0.383291 -1.375,0.78125 l -1.78125,-1.03125 -0.5,0.875 1.78125,1.03125 C -16.957063,17.966182 -17,18.225145 -17,18.5 c 0,0.274855 0.04294,0.533818 0.125,0.78125 l -1.78125,1.03125 0.5,0.875 1.78125,-1.03125 c 0.352503,0.40042 0.832682,0.670182 1.375,0.78125 V 23 h 1 v -2.0625 c 0.537663,-0.111041 1.024662,-0.383291 1.375,-0.78125 l 1.78125,1.03125 0.5,-0.875 -1.78125,-1.03125 C -12.042937,19.033818 -12,18.774855 -12,18.5 c 0,-0.274855 -0.04294,-0.533818 -0.125,-0.78125 l 1.78125,-1.03125 -0.5,-0.875 -1.78125,1.03125 C -12.977503,16.44333 -13.457682,16.173568 -14,16.0625 V 14 Z m 0.5,3.5 c 0.552,0 1,0.448 1,1 0,0.552 -0.448,1 -1,1 -0.552,0 -1,-0.448 -1,-1 0,-0.552 0.448,-1 1,-1 z"/><path style="opacity:.3;fill:#fcffff;fill-rule:evenodd" id="path4554" d="m -19,19 9,-0.0096 c 0,0 0,0 0,-2 C -10,14 -11,14 -14.5,14 c -3.5,0 -4.5,0 -4.5,3 0,2 0,2 0,2 z"/></g></g></svg>